HIERARCHY
ROOT root
{
	OFFSET 0.000000 0.000000 0.000000
	CHANNELS 6 Xposition Yposition Zposition Zrotation Yrotation Xrotation
	JOINT lhip
	{
		OFFSET 0.058581 -0.082280 -0.017664
		CHANNELS 3 Zrotation Yrotation Xrotation
		JOINT lknee
		{
			OFFSET 0.043451 -0.386469 0.008037
			CHANNELS 3 Zrotation Yrotation Xrotation
			JOINT lankle
			{
				OFFSET -0.014790 -0.426874 -0.037428
				CHANNELS 3 Zrotation Yrotation Xrotation
				JOINT ltoe
				{
					OFFSET 0.041054 -0.060286 0.122042
					CHANNELS 3 Zrotation Yrotation Xrotation
					End Site
					{
						OFFSET 0.000000 0.000000 0.000000
					}
				}
			}
		}
	}
	JOINT rhip
	{
		OFFSET -0.060310 -0.090513 -0.013543
		CHANNELS 3 Zrotation Yrotation Xrotation
		JOINT rknee
		{
			OFFSET -0.043257 -0.383688 -0.004843
			CHANNELS 3 Zrotation Yrotation Xrotation
			JOINT rankle
			{
				OFFSET 0.019056 -0.420046 -0.034562
				CHANNELS 3 Zrotation Yrotation Xrotation
				JOINT rtoe
				{
					OFFSET -0.034840 -0.062106 0.130323
					CHANNELS 3 Zrotation Yrotation Xrotation
					End Site
					{
						OFFSET 0.000000 0.000000 0.000000
					}
				}
			}
		}
	}
	JOINT lowerback
	{
		OFFSET 0.004439 0.124404 -0.038385
		CHANNELS 3 Zrotation Yrotation Xrotation
		JOINT upperback
		{
			OFFSET 0.004488 0.137956 0.026820
			CHANNELS 3 Zrotation Yrotation Xrotation
			JOINT chest
			{
				OFFSET -0.002265 0.056032 0.002855
				CHANNELS 3 Zrotation Yrotation Xrotation
				JOINT lowerneck
				{
					OFFSET -0.013390 0.211636 -0.033468
					CHANNELS 3 Zrotation Yrotation Xrotation
					JOINT upperneck
					{
						OFFSET 0.010113 0.088937 0.050410
						CHANNELS 3 Zrotation Yrotation Xrotation
						End Site
						{
							OFFSET 0.000000 0.000000 0.000000
						}
					}
				}
				JOINT lclavicle
				{
					OFFSET 0.071702 0.114000 -0.018898
					CHANNELS 3 Zrotation Yrotation Xrotation
					JOINT lshoulder
					{
						OFFSET 0.122921 0.045205 -0.019046
						CHANNELS 3 Zrotation Yrotation Xrotation
						JOINT lelbow
						{
							OFFSET 0.255332 -0.015649 -0.022946
							CHANNELS 3 Zrotation Yrotation Xrotation
							JOINT lwrist
							{
								OFFSET 0.265709 0.012698 -0.007375
								CHANNELS 3 Zrotation Yrotation Xrotation
								End Site
								{
									OFFSET 0.000000 0.000000 0.000000
								}
							}
						}
					}
				}
				JOINT rclavicle
				{
					OFFSET -0.082954 0.112472 -0.023707
					CHANNELS 3 Zrotation Yrotation Xrotation
					JOINT rshoulder
					{
						OFFSET -0.113228 0.046853 -0.008472
						CHANNELS 3 Zrotation Yrotation Xrotation
						JOINT relbow
						{
							OFFSET -0.260127 -0.014369 -0.031269
							CHANNELS 3 Zrotation Yrotation Xrotation
							JOINT rwrist
							{
								OFFSET -0.269108 0.006794 -0.006027
								CHANNELS 3 Zrotation Yrotation Xrotation
								End Site
								{
									OFFSET 0.000000 0.000000 0.000000
								}
							}
						}
					}
				}
			}
		}
	}
}
MOTION
Frames: 8
Frame Time: 0.033333
0.511754 0.678154 0.547125 -31.879475 -0.577248 76.554443 13.700470 -9.666696 -51.997005 -7.727072 14.730294 135.383781 -3.886584 15.500978 -34.897813 0.000000 -0.000000 0.000000 -32.507192 -11.181730 -66.971371 9.689390 2.224152 108.227516 11.832320 1.723183 -24.837764 0.000000 -0.000000 0.000000 7.717816 -1.914159 45.854595 6.844208 6.195563 -8.355271 4.372927 3.639572 0.637582 -7.033843 2.962733 -23.705612 0.505779 -0.339036 -15.946423 6.671695 -9.080165 -7.680319 -15.764490 -1.423809 -12.801765 134.580041 -42.069966 -95.490025 49.362725 -17.277870 12.330370 10.905933 21.410225 -4.564789 35.850121 5.592946 -9.339050 -30.880629 28.327256 -40.790751 -0.307782 2.982438 -22.953223 
0.511219 0.678292 0.546315 -31.865258 -0.614868 76.529923 13.696582 -9.680502 -51.995565 -7.728400 14.738613 135.388919 -3.905196 15.498621 -34.904070 0.000000 -0.000000 0.000000 -32.524676 -11.187269 -66.963607 9.695318 2.232366 108.231752 11.872919 1.743516 -24.839557 0.000000 -0.000000 0.000000 7.741757 -1.914523 45.856550 6.850744 6.219838 -8.394869 4.380014 3.666613 0.638862 -7.019765 2.965539 -23.689975 0.486122 -0.353513 -15.965879 6.677981 -9.087246 -7.687804 -15.737806 -1.453419 -12.783634 134.550210 -42.066874 -95.475675 49.359254 -17.296171 12.345979 10.900219 21.408915 -4.607637 35.842271 5.586801 -9.314353 -30.904538 28.328679 -40.832069 -0.258540 3.001566 -22.960024 
0.510622 0.678728 0.544844 -31.682752 -0.823835 76.019630 13.490039 -9.768709 -51.879221 -7.803818 14.657726 135.643055 -4.228133 15.398788 -34.954677 0.000000 -0.000000 0.000000 -32.828313 -11.256677 -66.567770 9.755152 2.471885 108.404419 12.515589 2.291360 -24.849926 0.000000 -0.000000 0.000000 7.846846 -1.956265 46.540476 6.682748 6.308970 -8.882621 4.252400 3.858961 0.702801 -6.864014 2.965640 -23.327463 0.453558 -0.558421 -16.218628 6.467413 -9.020031 -8.801404 -14.803284 -2.463460 -12.297306 133.946247 -42.736595 -95.272258 49.085770 -17.326024 12.524513 11.210973 21.078447 -5.146477 35.677577 5.116212 -8.977316 -31.344280 28.829498 -41.639774 -0.382060 3.231138 -23.608341 
0.510664 0.679402 0.541310 -31.246365 -1.046745 75.801961 13.568508 -10.138456 -52.311350 -7.815411 14.877119 136.321784 -4.664222 14.925860 -35.050530 0.000000 -0.000000 0.000000 -33.361887 -11.576161 -66.816075 9.907431 2.600692 109.194782 13.306146 2.751206 -25.072991 0.000000 -0.000000 0.000000 7.949313 -1.961462 47.076857 6.747832 6.399357 -9.263291 4.237836 4.155865 0.751334 -6.764231 3.239161 -23.253132 0.112874 -0.770855 -17.098345 7.196551 -9.262550 -9.716529 -14.166908 -3.562968 -11.810272 131.905470 -42.938898 -94.326370 50.021410 -17.421347 11.994629 11.108662 20.959178 -5.683898 34.811198 4.426575 -8.864151 -32.596558 29.959537 -44.100359 -3.025625 3.893834 -25.142807 
0.510001 0.679495 0.540921 -31.241869 -1.068055 75.803086 13.568966 -10.139584 -52.316621 -7.819975 14.882631 136.322130 -4.666660 14.933295 -35.050560 0.000000 -0.000000 0.000000 -33.363482 -11.580831 -66.820372 9.912221 2.598319 109.198069 13.310189 2.747983 -25.073003 0.000000 -0.000000 0.000000 7.966528 -1.966585 47.067297 6.756823 6.404803 -9.270491 4.250929 4.159317 0.747430 -6.771315 3.228592 -23.257975 0.103389 -0.754916 -17.112779 7.197807 -9.275898 -9.699150 -14.156930 -3.515360 -11.823253 131.906535 -42.914331 -94.337950 50.036180 -17.422250 11.988495 11.086513 20.980384 -5.690084 34.806394 4.437086 -8.872625 -32.619166 29.951707 -44.122411 -2.983941 3.910838 -25.134550 
0.508531 0.679711 0.540319 -31.224676 -1.129016 75.793781 13.569204 -10.143217 -52.323985 -7.828620 14.888453 136.326191 -4.668356 14.943982 -35.050587 0.000000 -0.000000 0.000000 -33.368018 -11.591336 -66.831959 9.920315 2.594893 109.210120 13.316215 2.743976 -25.074188 0.000000 -0.000000 0.000000 8.014406 -1.970456 47.045322 6.775037 6.437096 -9.298088 4.272524 4.189639 0.718878 -6.780715 3.213476 -23.271451 0.097337 -0.732664 -17.134832 7.210760 -9.287244 -9.696999 -14.130140 -3.449609 -11.843443 131.897807 -42.878705 -94.356755 50.064276 -17.418334 11.982194 11.038147 21.026701 -5.708349 34.775110 4.461573 -8.886792 -32.672707 29.956664 -44.177095 -2.932896 3.941220 -25.129010 
0.507298 0.679659 0.540043 -31.206292 -1.195862 75.783356 13.575122 -10.140897 -52.316872 -7.833486 14.884659 136.330503 -4.668738 14.945161 -35.049254 0.000000 -0.000000 0.000000 -33.372914 -11.597614 -66.831278 9.919997 2.593073 109.224866 13.317580 2.743936 -25.075841 0.000000 -0.000000 0.000000 8.065782 -1.967284 47.017716 6.786258 6.485761 -9.335750 4.279939 4.239983 0.671254 -6.776055 3.211129 -23.273846 0.106187 -0.725153 -17.139208 7.221826 -9.280520 -9.729896 -14.113227 -3.446506 -11.853983 131.893152 -42.874028 -94.356696 50.066103 -17.413179 11.978996 10.981552 21.066721 -5.739991 34.728507 4.499601 -8.891844 -32.705629 29.975539 -44.195745 -2.929945 3.952353 -25.131116 
0.507161 0.680569 0.539097 -30.961906 -1.292096 76.138116 13.849466 -10.250426 -52.784332 -8.042084 14.844142 136.432545 -4.699345 14.641765 -35.225086 0.000000 -0.000000 0.000000 -33.661252 -12.362815 -67.423682 10.106577 2.303917 109.729195 13.882530 3.302435 -24.944555 0.000000 -0.000000 0.000000 8.301228 -1.656513 46.687389 7.093111 6.705059 -9.295202 4.799278 4.771121 0.859115 -7.556513 2.638172 -23.498389 -0.376606 -0.973047 -18.494670 8.272604 -9.251838 -11.341621 -15.716177 -4.858913 -11.295947 130.985905 -43.628405 -93.508890 51.558759 -17.095807 10.898978 10.246818 20.607155 -6.334176 34.064109 4.421708 -9.459499 -35.093639 30.402258 -46.632339 -2.641055 4.999369 -26.093349 
